<?xml version="1.0" standalone="no"?>
<!DOCTYPE svg PUBLIC "-//W3C//DTD SVG 20010904//EN"
 "http://www.w3.org/TR/2001/REC-SVG-20010904/DTD/svg10.dtd">
<svg version="1.0" xmlns="http://www.w3.org/2000/svg"
 width="256.000000pt" height="256.000000pt" viewBox="0 0 256.000000 256.000000"
 preserveAspectRatio="xMidYMid meet">

<g transform="translate(0.000000,256.000000) scale(0.100000,-0.100000)"
fill="#FFFFFF" stroke="none">
<path d="M1033 2065 c-79 -22 -130 -51 -185 -106 -52 -52 -94 -131 -106 -199
l-7 -41 -75 -3 c-86 -2 -138 -24 -196 -83 -69 -68 -97 -175 -71 -271 l14 -52
-26 -7 c-14 -3 -51 -18 -81 -33 -154 -78 -250 -266 -221 -433 31 -175 167
-314 341 -347 33 -6 352 -10 839 -10 853 0 864 1 972 56 29 14 81 54 115 88
188 188 186 487 -4 668 -77 74 -147 109 -264 133 -25 5 -28 10 -28 45 0 160
-108 301 -264 346 -71 20 -156 14 -223 -16 -51 -23 -58 -21 -68 17 -10 42 -61
117 -107 159 -93 84 -242 121 -355 89z m233 -93 c94 -48 147 -119 174 -232 19
-76 33 -84 83 -46 116 89 279 76 376 -29 59 -64 74 -105 75 -210 l1 -90 79
-12 c43 -7 104 -24 135 -39 73 -36 150 -114 187 -189 27 -55 29 -69 29 -170 0
-101 -2 -115 -29 -170 -38 -77 -114 -153 -191 -191 l-60 -29 -852 -3 -851 -2
-58 21 c-80 30 -163 113 -192 192 -29 78 -29 176 0 254 40 109 177 213 278
213 27 0 60 22 60 40 0 4 -11 28 -25 51 -32 56 -34 142 -6 198 48 92 151 137
250 108 66 -19 81 -7 81 62 0 81 27 139 94 207 78 78 122 95 236 91 63 -3 96
-9 126 -25z"/>
<path d="M1145 1483 c-169 -61 -273 -195 -283 -363 -22 -376 428 -581 694
-316 200 201 144 531 -112 657 -58 29 -79 34 -158 36 -68 3 -103 -1 -141 -14z
m268 -87 c61 -30 124 -92 159 -158 19 -37 23 -58 23 -143 0 -84 -4 -107 -23
-147 -31 -62 -89 -121 -154 -155 -47 -25 -64 -28 -148 -28 -79 0 -103 4 -141
23 -74 36 -125 87 -161 160 -29 59 -33 76 -33 147 0 67 5 89 28 137 30 61 93
130 141 155 98 51 217 55 309 9z"/>
<path d="M1246 1304 c-12 -11 -16 -36 -16 -94 l0 -79 -87 -3 -88 -3 0 -30 0
-30 88 -3 87 -3 0 -82 c0 -86 8 -107 42 -107 24 0 28 10 31 105 l4 80 89 5
c81 5 89 7 92 26 5 33 -18 43 -103 46 l-80 3 -1 77 c-1 97 -21 129 -58 92z"/>
</g>
</svg>
