<svg width="40" height="35" viewBox="0 0 40 35" fill="none" xmlns="http://www.w3.org/2000/svg">
<path fill-rule="evenodd" clip-rule="evenodd" d="M36.8348 0.4395C37.4208 1.0255 37.4208 1.9755 36.8348 2.5615L5.2868 34.1075C4.9948 34.4015 4.6108 34.5475 4.2268 34.5475C3.8428 34.5475 3.4588 34.4015 3.1668 34.1075C2.5808 33.5215 2.5808 32.5735 3.1668 31.9875L7.11069 28.046C4.28306 25.4597 1.88443 21.9733 0.123 17.8679C-0.041 17.4879 -0.041 17.0599 0.123 16.6819C2.165 11.9539 5.041 8.0399 8.441 5.3659C15.0267 0.153998 23.6846 -0.122651 30.5374 4.61655L34.7148 0.4395C35.3008 -0.1465 36.2488 -0.1465 36.8348 0.4395ZM36.0944 10.0815C37.5424 12.0035 38.8144 14.2255 39.8764 16.6775C40.0424 17.0575 40.0424 17.4895 39.8764 17.8675C35.6844 27.5815 28.2544 33.3795 20.0004 33.3795C18.1264 33.3795 16.2624 33.0755 14.4624 32.4775C13.6764 32.2155 13.2504 31.3655 13.5124 30.5795C13.7744 29.7915 14.6204 29.3735 15.4104 29.6295C16.9044 30.1275 18.4484 30.3795 20.0004 30.3795C26.8564 30.3795 33.1224 25.4955 36.8604 17.2735C35.9484 15.2755 34.8864 13.4655 33.6984 11.8855C33.2004 11.2235 33.3324 10.2815 33.9944 9.7835C34.6544 9.2855 35.5964 9.4215 36.0944 10.0815ZM10.299 7.7219C7.427 9.9819 4.961 13.2739 3.141 17.2779C4.72789 20.7828 6.81265 23.7386 9.23411 25.9214L13.5097 21.6462C12.6399 20.3664 12.1718 18.8574 12.1718 17.2771C12.1718 12.9571 15.6838 9.4431 19.9998 9.4431C21.5658 9.4431 23.0976 9.91992 24.3729 10.7817L28.376 6.7789C22.6703 3.09045 15.726 3.42693 10.299 7.7219ZM26.475 16.9231C27.291 17.0691 27.833 17.8491 27.687 18.6651C27.113 21.8511 24.589 24.3791 21.405 24.9591C21.315 24.9751 21.223 24.9831 21.135 24.9831C20.425 24.9831 19.793 24.4751 19.661 23.7511C19.513 22.9371 20.053 22.1551 20.869 22.0071C22.829 21.6511 24.381 20.0951 24.733 18.1331C24.881 17.3191 25.661 16.7831 26.475 16.9231ZM19.9998 12.4431C17.3378 12.4431 15.1718 14.6111 15.1718 17.2771C15.1718 18.0479 15.3533 18.7919 15.6953 19.46L22.1866 12.968C21.5183 12.6274 20.7666 12.4431 19.9998 12.4431Z" fill="#666666" fill-opacity="0.8"/>
</svg>
