<?xml version="1.0" encoding="UTF-8"?>
<svg version="1.1" viewBox="0 0 512 512" fill="none" stroke-width="1.5" stroke="currentColor" class="size-6" xmlns="http://www.w3.org/2000/svg">
<path transform="translate(194.03 -.40405)" d="m0 0c1.6163-0.010295 1.6163-0.010295 3.2652-0.020798 3.5447-0.018229 7.089-0.014436 10.634-0.0087433 2.4757-0.0045639 4.9514-0.0098701 7.427-0.015884 5.1831-0.0089236 10.366-0.0065167 15.549 0.0034332 6.6264 0.011484 13.252-0.0087177 19.878-0.037917 5.1114-0.018389 10.223-0.018064 15.334-0.012362 2.4423 1.529e-4 4.8846-0.0058658 7.3269-0.018291 3.4221-0.014957 6.8431-0.0041966 10.265 0.012907 0.99876-0.009668 1.9975-0.019336 3.0266-0.029297 10.567 0.11002 18.085 3.5954 25.677 10.828 5.2827 5.5221 10.197 11.386 14.916 17.397 2.7331 3.4519 2.7331 3.4519 6.6704 5.3062 1.6557 0.090956 3.3145 0.13156 4.9727 0.14062 1.4744 0.029004 1.4744 0.029004 2.9785 0.058594 2.0467 0.033405 4.0937 0.052048 6.1406 0.054688 8.4035 0.20749 15.036 2.2337 21.346 7.957 0.51562 0.71414 1.0312 1.4283 1.5625 2.1641 0.80438 1.0635 0.80438 1.0635 1.625 2.1484 3.682 6.6318 3.6316 13.009 3.5 20.414-0.0090234 0.97002-0.018047 1.94-0.027344 2.9395-0.023395 2.3746-0.056174 4.7487-0.097656 7.123 0.7604-0.0066618 1.5208-0.013324 2.3042-0.020187 7.2216-0.060506 14.443-0.10599 21.665-0.13525 3.7114-0.015551 7.4225-0.036593 11.134-0.070882 3.5921-0.032975 7.1841-0.050613 10.776-0.058313 2.0143-0.0081123 4.0285-0.031468 6.0427-0.055258 15.368-0.002763 27.511 2.9784 38.891 13.59 9.4635 9.9316 11.504 20.832 11.348 34.057-0.0060173 1.2254-0.012035 2.4508-0.018234 3.7133-0.013172 2.6557-0.029719 5.3112-0.050919 7.9668-0.031668 4.2137-0.039347 8.4273-0.041687 12.641-7.7042e-4 1.0707-7.7042e-4 1.0707-0.0015564 2.163-0.0010414 1.4593-0.0020457 2.9185-0.0030136 4.3778-0.0078673 9.7992-0.032854 19.598-0.11652 29.397-0.056376 6.6241-0.076613 13.247-0.0568 19.872 0.0090147 3.4961 4.2299e-4 6.99-0.052789 10.486-0.23612 16.248 0.058648 27.707 11.181 40.077 11.963 18.371 18.745 40.481 22 62 0.17435 1.0732 0.34869 2.1465 0.52832 3.2522 0.50063 3.9778 0.65107 7.8903 0.6748 11.892 0.0057001 0.76866 0.0114 1.5373 0.017273 2.3293 0.0094026 1.6245 0.015965 3.2491 0.019836 4.8736 0.0095885 2.4204 0.040607 4.8398 0.072266 7.26 0.075349 11.076-1.0901 21.548-3.3125 32.393-0.19352 0.95221-0.38704 1.9044-0.58643 2.8855-0.484 2.2012-1.0178 4.3752-1.6011 6.552-0.20649 0.77312-0.41298 1.5462-0.62573 2.3428-11.47 40.865-40.249 78.134-76.99 99.341-23.62 13.11-49.971 22.819-77.263 23.117-0.74764 0.0098845-1.4953 0.019769-2.2656 0.029953-35.609 0.37342-68.122-6.2651-98.856-25.081-0.58072-0.35369-1.1614-0.70737-1.7598-1.0718-3.2299-2.0562-6.0651-4.1274-8.8666-6.7676-9.6295-8.9147-17.333-9.9083-30.118-9.6411-1.8644-0.0018525-3.7287-0.0086003-5.593-0.019821-5.0236-0.016958-10.044 0.032784-15.068 0.094322-5.2781 0.052158-10.556 0.03907-15.834 0.032433-9.9907-0.0033274-19.98 0.046546-29.971 0.11807-17.885 0.12588-35.771 0.15193-53.657 0.17189-6.2674 0.0089839-12.534 0.038254-18.801 0.085276-3.9065 0.027152-7.813 0.042407-11.72 0.055297-1.8011 0.0087189-3.6021 0.02267-5.4031 0.042454-15.807 0.17014-30.083-1.356-42.325-12.431-9.6574-10.57-12.151-21.33-12.083-35.24-0.0041786-1.3446-0.009659-2.6892-0.01632-4.0338-0.014404-3.6754-0.010226-7.3506-0.0028332-11.026 0.0047419-3.9715-0.0077872-7.9429-0.018017-11.914-0.017174-7.773-0.018031-15.546-0.012787-23.319 0.0040457-6.3198 0.0025933-12.64-0.0027483-18.959-7.4842e-4 -0.90037-0.0014968-1.8007-0.0022679-2.7284-0.0015315-1.8293-0.0030699-3.6585-0.004615-5.4878-0.01372-17.145-0.008291-34.289 0.0031852-51.434 0.0099312-15.673-0.0030072-31.347-0.026934-47.02-0.024402-16.106-0.033996-32.213-0.027347-48.319 0.0034898-9.0373 0.0012759-18.075-0.016251-27.112-0.014736-7.6935-0.015339-15.387 0.0020709-23.08 0.008501-3.9224 0.010682-7.8446-0.0046516-11.767-0.013884-3.5964-0.0090365-7.1923 0.010239-10.789 0.0055139-1.9052-0.0084802-3.8104-0.023354-5.7155 0.10759-12.628 4.0512-22.51 12.53-31.91 9.7741-8.6082 20.667-12.14 33.578-12.114 1.2608 7.553e-5 2.5216 1.5107e-4 3.8205 2.2889e-4 1.3555 0.005105 2.7109 0.010321 4.0664 0.01564 1.4025 0.0018677 2.8049 0.00329 4.2074 0.0042877 3.671 0.0037974 7.3419 0.013604 11.013 0.024704 3.7541 0.010274 7.5081 0.014806 11.262 0.019836 7.3509 0.010688 14.702 0.027731 22.053 0.048828-0.020947-0.61931-0.041895-1.2386-0.063477-1.8767-0.084042-2.8534-0.13546-5.7066-0.18652-8.5608-0.033516-0.97389-0.067031-1.9478-0.10156-2.9512-0.11142-8.3283 1.9566-13.948 6.4766-20.861 7.2848-6.968 14.883-8.4515 24.688-8.375 8.7042 0.36736 8.7042 0.36736 16.188-3.375 1.883-2.0302 3.6396-4.0407 5.375-6.1875 0.97242-1.1721 1.9451-2.3439 2.918-3.5156 0.9031-1.0983 1.8055-2.1972 2.707-3.2969 9.6518-11.757 18.56-17.474 34.031-17.404zm-18.843 27.467c-0.85852 0.96293-1.717 1.9259-2.6016 2.918-2.4956 2.9141-4.8898 5.8886-7.2734 8.8945-5.5219 6.791-10.477 10.626-19.312 12.125-4.4898 0.30226-8.9875 0.31843-13.486 0.30273-0.89525 0.01998-1.7905 0.039961-2.7129 0.060547-1.204 0.0044714-1.204 0.0044714-2.4324 0.0090332-3.7306 0.9887-5.1174 2.5105-7.3684 5.6277-0.59264 3.2975-0.47422 6.4761-0.3125 9.8125 0.022559 0.88365 0.045117 1.7673 0.068359 2.6777 0.058666 2.1707 0.14834 4.3404 0.24414 6.5098 24.13 3.7469 24.13 3.7469 46.478-2.1782 5.207-5.4422 8.2097-11.78 11.072-18.676 3.7875-8.2138 9.1077-15.335 17.45-19.146 3.596-1.1987 6.8892-1.1633 10.633-1.177 1.164-0.0098568 1.164-0.0098568 2.3516-0.019913 2.5701-0.01972 5.1402-0.031395 7.7104-0.041367 1.3195-0.0061133 1.3195-0.0061133 2.6656-0.01235 4.6593-0.020859 9.3186-0.035159 13.978-0.044535 4.7983-0.011042 9.596-0.045416 14.394-0.085172 3.7011-0.02623 7.402-0.034526 11.103-0.03811 1.7677-0.0048525 3.5354-0.016428 5.3031-0.035038 19.234-0.18986 19.234-0.18986 27.208 6.391 3.3872 4.074 6.5164 8.2203 9.4648 12.625 0.64034 0.94939 1.2807 1.8988 1.9404 2.877 1.6255 2.4787 2.9791 4.9932 4.2822 7.6541 4.1304 7.9239 4.1304 7.9239 11.31 12.75 6.5969 1.1551 13.2 0.61676 19.843 0.15622 2.0212-0.080375 4.0427-0.15336 6.0645-0.21875 4.9237-0.17524 9.8324-0.45043 14.748-0.78125 0.081208-2.8964 0.14059-5.7905 0.1875-8.6875 0.025137-0.81662 0.050273-1.6332 0.076172-2.4746 0.058033-4.778-0.11463-7.9721-3.2637-11.838-2.3426-1.1713-3.8263-1.154-6.4375-1.2109-1.3438-0.042539-1.3438-0.042539-2.7148-0.085938-1.867-0.051221-3.7342-0.09573-5.6016-0.13281-11.572-0.39506-19.282-3.0589-27.246-11.57-2.3255-2.7038-4.5747-5.4529-6.7969-8.2422-2.1215-2.6556-4.2875-5.2538-6.5156-7.8203-0.61488-0.71285-1.2298-1.4257-1.8633-2.1602-3.1574-3.0763-5.9208-4.0258-10.289-4.0448-0.88873-0.00853-1.7775-0.01706-2.6931-0.025848-0.96737 9.0637e-4 -1.9347 0.0018127-2.9314 0.0027466-1.5372-0.010076-1.5372-0.010076-3.1055-0.020355-3.3908-0.019012-6.7814-0.022906-10.172-0.025055-2.3565-0.0064256-4.7129-0.013154-7.0694-0.020172-4.9413-0.011981-9.8824-0.01568-14.824-0.014496-6.3309 2.0325e-4 -12.661-0.027102-18.992-0.061544-4.8676-0.02224-9.7351-0.026294-14.603-0.025236-2.334-0.0023602-4.668-0.011207-7.0019-0.026665-3.2652-0.0196-6.5295-0.013845-9.7947-0.0017891-0.96332-0.011239-1.9266-0.022478-2.9192-0.034058-8.4525 0.079283-12.678 3.3182-18.241 9.5824zm21.033 30.824c-0.40292 0.69741-0.80585 1.3948-1.221 2.1134-0.95012 1.3473-1.9062 2.6905-2.8711 4.0273-0.86151 1.2994-1.7171 2.6028-2.5664 3.9102-0.44537 0.67096-0.89074 1.3419-1.3496 2.0332-2.216 2.802-2.216 2.802-3.2129 6.0293h108c-5.4806-8.6844-5.4806-8.6844-11.312-17.062-0.65613-0.89848-1.3123-1.797-1.9883-2.7227-1.6572-2.2599-1.6572-2.2599-3.6992-4.2148-3.1479-0.35018-3.1479-0.35018-6.9089-0.354-0.71081-0.013142-1.4216-0.026285-2.154-0.039825-2.3579-0.039494-4.7156-0.0628-7.0738-0.082733-0.80584-0.008151-1.6117-0.016302-2.4419-0.0247-4.268-0.04174-8.5358-0.070331-12.804-0.089069-4.4012-0.022096-8.8004-0.090842-13.201-0.17034-3.3896-0.052402-6.7788-0.069046-10.169-0.07622-1.6216-0.0097199-3.2431-0.032916-4.8643-0.070076-11.665-0.45402-11.665-0.45402-20.163 6.7936zm-172.22 44.113c-4.5184 5.9816-6.1541 10.801-6.0977 18.293 0.001415 0.70603 0.0028299 1.4121 0.0042877 2.1395 0.0055909 2.2517 0.018142 4.5034 0.030869 6.7551 0.0050162 1.528 0.0095789 3.056 0.013672 4.584 0.011017 3.7429 0.028275 7.4857 0.048828 11.229 3.4791 0.058837 6.9581 0.093874 10.438 0.125 1.4608 0.025137 1.4608 0.025137 2.9512 0.050781 10.512 0.070315 19.227-1.4517 27.611-8.1758 8.6274-9.5188 9.3088-18.657 9.125-31-0.0090234-1.1563-0.018047-2.3126-0.027344-3.5039-0.023407-2.8323-0.056196-5.6641-0.097656-8.4961-4.479-0.087842-8.9579-0.14067-13.438-0.1875-1.2601-0.025137-2.5201-0.050273-3.8184-0.076172-10.057-0.078772-19.241 0.96537-26.744 8.2637zm62-8-1 27c-3.995 15.98-8.0407 25.948-22.062 34.426-10.992 5.8908-21.707 6.6698-33.938 7.1367-1.0609 0.043184-2.1218 0.086367-3.2148 0.13086-2.5949 0.1052-5.19 0.20734-7.7852 0.30664-0.11608 12.735-0.20481 25.47-0.25906 38.206-0.026043 5.9143-0.061344 11.828-0.11814 17.742-0.054509 5.7124-0.084263 11.424-0.097189 17.137-0.0092059 2.1744-0.027183 4.3488-0.054264 6.5231-0.036541 3.0566-0.041285 6.1118-0.038977 9.1686-0.017976 0.88977-0.035953 1.7795-0.054474 2.6963 0.060135 7.4082 2.3434 13.875 7.3484 19.45 7.905 7.5478 16.949 7.503 27.309 7.4176 1.41-8.4741e-4 2.8201-3.6891e-4 4.2301 0.0013275 3.8074 8.5694e-4 7.6145-0.01672 11.422-0.037722 3.9865-0.018817 7.973-0.020521 11.959-0.024076 7.5399-0.0093056 15.08-0.033899 22.619-0.064048 8.5877-0.03359 17.175-0.050042 25.763-0.065086 17.657-0.031315 35.314-0.084047 52.971-0.15097 0.7921-1.5813 1.5839-3.1628 2.3755-4.7444 0.44095-0.88068 0.8819-1.7614 1.3362-2.6687 1.1056-2.22 2.1984-4.4453 3.2805-6.6767 19.929-40.894 54.112-71.57 97.008-86.91 43.91-14.757 91.634-11.653 133.19 8.8125 13.994 7.1556 27.629 15.547 38.543 27.004 1.2241 1.4109 1.2241 1.4109 3.2695 1.1836v-54c-7.59-0.33-15.18-0.66-23-1-11.813-1.1251-25.019-5.6239-33-15-12.674-17.031-11.205-30.752-12-53h-306zm324 0c-0.11776 4.1039-0.18777 8.2074-0.25 12.312-0.033516 1.1479-0.067031 2.2958-0.10156 3.4785-0.11239 9.9183 1.5148 19.296 8.5938 26.713 9.2673 7.8875 19.585 8.823 31.32 8.6211 1.0087-0.0090234 2.0174-0.018047 3.0566-0.027344 2.4605-0.023323 4.9206-0.056049 7.3809-0.097656 0.099811-4.25 0.17191-8.4994 0.21973-12.75 0.019961-1.4422 0.04714-2.8843 0.082031-4.3262 0.24341-10.327-0.26926-18.644-7.3643-26.736-8.3805-7.6462-18.86-7.7277-29.625-7.4375-1.2858 0.018047-2.5717 0.036094-3.8965 0.054688-3.1395 0.046684-6.2773 0.11215-9.416 0.19531zm-184.92 147.18c-21.879 24.886-35.957 58.576-37.076 91.817-0.051562 1.1975-0.10312 2.3951-0.15625 3.6289-1.1186 38.093 11.897 75.769 37.156 104.37 0.84176 0.97453 1.6835 1.9491 2.5508 2.9531 20.835 23.743 48.87 39.575 79.449 47.047 0.68965 0.17644 1.3793 0.35288 2.0898 0.53467 38.865 9.5553 79.808-0.41211 113.54-20.347 33.257-21.133 55.59-52.188 66.625-89.812 0.3698-1.2516 0.3698-1.2516 0.74707-2.5286 3.4477-12.259 4.3832-24.367 4.3154-37.034-0.0021552-0.7265-0.0043103-1.453-0.0065308-2.2015-0.052849-11.117-0.55168-21.802-3.306-32.611-0.27409-1.1384-0.27409-1.1384-0.55371-2.2998-5.8984-23.913-17.464-45.09-33.446-63.7l-2.2188-2.5938c-25.992-29.653-63.472-47.391-102.7-50.277-49.03-3.0299-94.217 17.039-127.01 53.054zm-207.08 50.817c-0.11699 18.211-0.20506 36.423-0.25906 54.634-0.025742 8.4567-0.060815 16.913-0.11814 25.37-0.049959 7.3739-0.082123 14.748-0.093245 22.122-0.0064978 3.9017-0.021684 7.803-0.058208 11.705-0.034157 3.6789-0.044364 7.3572-0.036888 11.036-0.0020128 1.9806-0.028804 3.9611-0.056562 5.9414 0.044378 7.7489 1.0663 13.775 5.6221 20.192 8.2666 8.1661 17.779 9.38 28.908 9.3733 1.573-0.010614 3.146-0.021518 4.719-0.032684 1.6762-8.473e-4 3.3524-3.6913e-4 5.0285 0.0013275 4.5283 8.5736e-4 9.0565-0.016726 13.585-0.037722 4.7405-0.01881 9.4811-0.020521 14.222-0.024076 8.9671-0.0093077 17.934-0.033904 26.901-0.064048 10.213-0.033584 20.426-0.05004 30.638-0.065086 20.999-0.03132 41.999-0.084056 62.998-0.15097-1.5327-3.2283-3.3991-5.9318-5.5789-8.7683-27.561-36.007-37.794-81.672-31.999-126.31 0.59464-4.0299 1.2867-8.0055 2.2109-11.973 0.49084-2.2705 0.49084-2.2705 0.36719-5.9453-0.71046-0.0014666-1.4209-0.0029331-2.1529-0.0044441-17.329-0.037136-34.658-0.096241-51.987-0.17946-8.3803-0.039721-16.76-0.072148-25.141-0.087093-7.3088-0.013053-14.617-0.040109-21.926-0.083617-3.8659-0.022534-7.7315-0.038303-11.597-0.037271-3.6478 7.5145e-4 -7.295-0.017391-10.943-0.049284-1.9586-0.01242-3.9173-0.0054728-5.8759 0.0023098-8.1437-0.094855-14.83-1.5257-22.378-4.5611-0.93687-0.37312-1.8737-0.74625-2.839-1.1307-1.0697-0.43031-1.0697-0.43031-2.161-0.86932z"/>
<path transform="translate(293.62 248.42)" d="m0 0c5.791 3.0292 10.045 7.753 14.57 12.382 0.95175 0.95923 1.9044 1.9176 2.8579 2.8751 2.488 2.5032 4.9638 5.0181 7.4371 7.5359 2.5336 2.5748 5.0788 5.138 7.623 7.7023 4.9761 5.0188 9.9394 10.05 14.895 15.09 5.6823-4.7133 10.868-9.782 16.039-15.047 1.7315-1.749 3.4633-3.4977 5.1953-5.2461 2.7068-2.7378 5.4111-5.4779 8.1104-8.2231 2.6206-2.6628 5.2504-5.3162 7.8818-7.9683 1.208-1.2359 1.208-1.2359 2.4403-2.4968 0.75784-0.76129 1.5157-1.5226 2.2965-2.3069 0.66061-0.67029 1.3212-1.3406 2.0019-2.0312 3.4832-2.8772 6.9971-3.9693 11.472-3.9932 0.72059-0.016758 1.4412-0.033516 2.1836-0.050781 6.3396 0.96812 10.472 5 14.801 9.3516 0.58606 0.58082 1.1721 1.1616 1.7759 1.7601 1.2306 1.2242 2.4574 2.4523 3.6806 3.684 1.8677 1.8762 3.7534 3.733 5.6411 5.5891 1.1977 1.1961 2.3944 2.3934 3.5898 3.5918 0.56145 0.55021 1.1229 1.1004 1.7014 1.6673 3.834 3.903 6.0759 7.4319 6.2713 13.098-0.088945 0.72059-0.17789 1.4412-0.26953 2.1836-0.076055 0.72316-0.15211 1.4463-0.23047 2.1914-1.2651 4.8821-4.3645 8.2762-7.8699 11.761-0.86067 0.86051-1.7213 1.721-2.6081 2.6076-0.92509 0.91477-1.8502 1.8295-2.8033 2.772-0.96022 0.95649-1.92 1.9134-2.8793 2.8708-2.5158 2.5082-5.0375 5.0103-7.5606 7.5112-2.5777 2.5572-5.1497 5.1201-7.7222 7.6825-5.0407 5.0193-10.088 10.032-15.139 15.041 1.4719 3.422 3.375 5.5936 6.0349 8.1826 0.83104 0.81475 1.6621 1.6295 2.5183 2.4689 0.89896 0.87296 1.7979 1.7459 2.7241 2.6453 1.4094 1.3869 2.8187 2.7739 4.2272 4.1617 3.4681 3.4148 6.9462 6.8193 10.435 10.213 1.9579 1.9058 3.9089 3.8182 5.8529 5.7381 1.8282 1.8048 3.6664 3.5995 5.5157 5.3827 5.4466 5.402 9.2374 9.833 9.907 17.746-0.13729 1.0325-0.13729 1.0325-0.27734 2.0859-0.073477 0.69352-0.14695 1.387-0.22266 2.1016-1.7678 5.6223-6.0098 9.894-10.074 14.004-0.50807 0.5171-1.0161 1.0342-1.5396 1.567-1.0697 1.0841-2.1422 2.1655-3.2172 3.2443-1.6279 1.6398-3.2362 3.2974-4.8447 4.9563-5.938 6.0323-10.735 10.774-19.508 11.787-10.378-1.1376-17.075-9.5472-24.062-16.621-0.87652-0.87935-1.753-1.7587-2.6561-2.6647-2.7756-2.7868-5.5442-5.5804-8.3126-8.3744-1.8896-1.9008-3.7808-3.7999-5.6719-5.6992-4.6147-4.6367-9.2236-9.279-13.828-13.926-3.4729 1.4869-5.6746 3.4521-8.3062 6.1426-0.84122 0.85429-1.6824 1.7086-2.5492 2.5887-0.90111 0.92398-1.8022 1.848-2.7306 2.7999-0.94325 0.95715-1.8872 1.9136-2.8319 2.8693-4.0031 4.0519-7.9949 8.1149-11.978 12.187-2.4405 2.4942-4.8907 4.9784-7.3472 7.4569-1.3823 1.4007-2.7533 2.8124-4.1241 4.2244-0.84753 0.85429-1.6951 1.7086-2.5683 2.5887-1.1078 1.1301-1.1078 1.1301-2.2379 2.2831-3.9594 3.1639-8.1877 4.259-13.202 3.922-3.7952-0.55239-5.9203-1.3301-8.7344-3.9336-0.68498-0.63075-1.37-1.2615-2.0757-1.9114-1.1459-1.0977-1.1459-1.0977-2.3149-2.2175-1.3219-1.2649-1.3219-1.2649-2.6704-2.5554-2.4246-2.3497-4.8305-4.7149-7.2227-7.0974-1.4935-1.4837-2.9974-2.9563-4.5015-4.4292-0.96029-0.95377-1.9199-1.9082-2.8789-2.8633-0.86029-0.85094-1.7206-1.7019-2.6069-2.5786-3.121-3.6459-4.4085-7.0784-4.4946-11.851-0.028359-0.70898-0.056719-1.418-0.085938-2.1484 1.5462-8.3075 8.5175-13.923 14.258-19.566 0.95901-0.95341 1.9174-1.9075 2.8751-2.8622 2.5054-2.494 5.0196-4.9788 7.5359-7.4618 2.5729-2.5421 5.1372-5.0928 7.7023-7.6428 5.0216-4.9896 10.053-9.9695 15.09-14.943-4.6346-5.5853-9.6056-10.679-14.793-15.75-1.699-1.6766-3.3976-3.3537-5.0957-5.0312-2.6552-2.618-5.3132-5.2328-7.9792-7.8398-2.5884-2.5338-5.1638-5.0802-7.7375-7.6289-0.7969-0.77312-1.5938-1.5462-2.4148-2.3428-5.457-5.431-8.546-9.504-9.4172-17.345 0.53104-9.8676 8.0124-16.262 14.609-22.755 1.6412-1.6198 3.26-3.2599 4.8777-4.9031 1.0515-1.0488 2.1041-2.0964 3.1582-3.1426 0.47629-0.48439 0.95259-0.96878 1.4433-1.4678 6.5954-6.4173 14.258-8.7856 22.967-5.3788zm-10.588 19.329c-1.1783 1.194-1.1783 1.194-2.3804 2.4121-0.85078 0.85723-1.7016 1.7145-2.5781 2.5977-0.88945 0.90621-1.7789 1.8124-2.6953 2.7461-0.89719 0.90621-1.7944 1.8124-2.7188 2.7461-2.2233 2.2469-4.4417 4.4984-6.6562 6.7539 1.5366 3.651 3.7258 5.9622 6.5256 8.7368 0.4571 0.45579 0.91421 0.91158 1.3852 1.3812 1.5057 1.4992 3.0181 2.9913 4.5306 4.4836 1.049 1.0427 2.0975 2.086 3.1455 3.1297 2.7556 2.7423 5.5168 5.4791 8.2796 8.2142 4.4269 4.3837 8.847 8.7742 13.264 13.168 1.5449 1.5346 3.0931 3.0658 4.6417 4.5967 1.4017 1.3919 1.4017 1.3919 2.8316 2.8119 0.8267 0.81844 1.6534 1.6369 2.5051 2.4801 2.3989 2.5344 2.8341 3.6414 3.3911 7.1229-1.1374 8.8147-11.53 16.037-17.59 22.062-0.95429 0.95242-1.9083 1.9051-2.8622 2.8579-2.485 2.4813-4.9731 4.9595-7.4618 7.4371-2.5495 2.5391-5.096 5.0812-7.6428 7.623-4.9783 4.9677-9.9598 9.9321-14.943 14.895 4.5615 5.4031 4.5615 5.4031 9.4297 10.527 0.56719 0.56396 1.1344 1.1279 1.7188 1.709 0.56977 0.56139 1.1395 1.1228 1.7266 1.7012 0.59297 0.58846 1.1859 1.1769 1.7969 1.7832 1.4404 1.4288 2.8839 2.8544 4.3281 4.2793 3.6091-1.526 5.8997-3.663 8.645-6.4338 0.9142-0.91758 1.8284-1.8352 2.7703-2.7805 0.9892-1.0027 1.9784-2.0055 2.9675-3.0083 1.0203-1.0266 2.0411-2.0527 3.0625-3.0782 2.6832-2.6964 5.3607-5.3984 8.0367-8.102 4.289-4.3321 8.5847-8.6575 12.884-12.98 1.5014-1.5116 2.9993-3.0266 4.497-4.5419 0.90789-0.91442 1.8158-1.8288 2.7512-2.771 0.80068-0.80893 1.6014-1.6179 2.4263-2.4513 3.1132-2.9436 5.9732-3.6295 10.295-3.5597 6.0484 1.6038 10.268 7.2405 14.481 11.644 1.1062 1.123 2.2143 2.244 3.3244 3.363 2.9055 2.9397 5.7829 5.9055 8.6552 8.8776 2.9401 3.0324 5.9061 6.0393 8.8699 9.0485 5.8036 5.8999 11.578 11.827 17.334 17.773 3.6846-3.1177 7.3468-6.2167 10.746-9.6484 0.60908-0.6123 1.2182-1.2246 1.8457-1.8555 0.60908-0.61746 1.2182-1.2349 1.8457-1.8711 0.95423-0.961 0.95423-0.961 1.9277-1.9414 1.5473-1.5589 3.0917-3.1206 4.6348-4.6836-5.0297-6.0992-10.535-11.6-16.176-17.133-0.97604-0.96399-1.9515-1.9285-2.9266-2.8935-4.1105-4.0681-8.2238-8.1331-12.353-12.182-2.5378-2.4893-5.0657-4.9882-7.5874-7.4937-1.4227-1.408-2.8559-2.8053-4.2894-4.2024-0.86147-0.85794-1.7229-1.7159-2.6105-2.5998-0.76134-0.74944-1.5227-1.4989-2.3071-2.271-2.0522-2.6084-2.6767-3.9041-2.7503-7.2246 1.6681-5.0821 3.8777-8.3723 7.655-12.109 0.45886-0.45944 0.91771-0.91888 1.3905-1.3922 1.5003-1.4975 3.0142-2.9804 4.5287-4.4635 1.0503-1.0429 2.0998-2.0866 3.1484-3.1312 2.7482-2.733 5.5081-5.4537 8.2708-8.172 2.8226-2.7816 5.6338-5.5746 8.446-8.3667 5.5091-5.4663 11.031-10.92 16.561-16.365-1.5759-3.3248-3.2817-5.5163-5.9141-8.1094-0.76055-0.7541-1.5211-1.5082-2.3047-2.2852-1.1911-1.166-1.1911-1.166-2.4062-2.3555-0.8018-0.79277-1.6036-1.5855-2.4297-2.4023-1.9773-1.9538-3.9592-3.9028-5.9453-5.8477-6.0266 4.9862-11.517 10.403-17.02 15.957-0.94898 0.95339-1.8983 1.9065-2.8478 2.8593-2.9846 2.9959-5.9651 5.9957-8.9451 8.9962-3.473 3.4966-6.9476 6.9916-10.426 10.482-1.388 1.3945-2.773 2.7921-4.1579 4.1896-1.2572 1.2622-1.2572 1.2622-2.5398 2.5499-0.73834 0.74357-1.4767 1.4871-2.2374 2.2533-2.4272 2.2763-3.6166 2.6788-6.9509 3.2123-8.8212-1.1382-15.988-11.509-21.992-17.59-0.94747-0.95444-1.8953-1.9085-2.8435-2.8622-3.9908-4.015-7.9755-8.0359-11.956-12.061-2.4494-2.4761-4.9037-4.9474-7.3609-7.4158-1.3853-1.3945-2.765-2.7946-4.1446-4.1948-0.83492-0.8383-1.6698-1.6766-2.5301-2.5403-0.73532-0.74278-1.4706-1.4856-2.2282-2.2508-2.5972-2.2635-3.2205-2.115-5.7903 0.1588z"/>
</svg>
