<?xml version="1.0" standalone="no"?>
<!DOCTYPE svg PUBLIC "-//W3C//DTD SVG 20010904//EN"
 "http://www.w3.org/TR/2001/REC-SVG-20010904/DTD/svg10.dtd">
<svg version="1.0" xmlns="http://www.w3.org/2000/svg"
 width="512.000000pt" height="512.000000pt" viewBox="0 0 512.000000 512.000000"
 preserveAspectRatio="xMidYMid meet" class="text-gray-300">

<g transform="translate(0.000000,512.000000) scale(0.100000,-0.100000)"
fill="#D1D5DB" stroke="#D1D5DB">
<path d="M2485 4871 c-126 -33 -225 -142 -242 -266 l-6 -44 -148 -3 c-131 -3
-151 -5 -175 -24 -53 -39 -68 -70 -72 -144 l-4 -70 -335 0 c-234 0 -348 -4
-377 -12 -55 -16 -138 -99 -154 -154 -18 -60 -18 -3688 0 -3748 16 -55 99
-138 154 -154 60 -17 2808 -17 2868 0 55 16 138 99 154 154 18 60 18 3688 0
3748 -16 55 -99 138 -154 154 -29 8 -143 12 -378 12 l-336 0 0 55 c0 72 -19
116 -66 151 -37 28 -40 29 -185 32 l-147 3 -7 47 c-4 26 -21 73 -38 105 -52
99 -141 156 -256 162 -36 2 -79 1 -96 -4z m171 -186 c20 -15 42 -43 50 -61 27
-65 31 -64 -146 -64 -174 0 -171 -1 -149 57 37 98 160 133 245 68z m464 -445
l0 -160 -560 0 -560 0 0 160 0 160 560 0 560 0 0 -160z m-1278 -149 c3 -56 9
-75 32 -106 52 -68 30 -66 700 -63 593 3 605 3 632 24 53 39 68 70 72 144 l4
70 335 0 334 0 24 -25 25 -24 0 -1831 0 -1831 -25 -24 -24 -25 -1391 0 -1391
0 -24 25 -25 24 0 1831 0 1831 25 24 24 25 334 0 335 0 4 -69z"/>
<path d="M1385 3735 l-25 -24 0 -1511 0 -1511 25 -24 24 -25 1151 0 1151 0 24
25 25 24 0 1511 0 1511 -25 24 -24 25 -1151 0 -1151 0 -24 -25z m2215 -1535
l0 -1400 -1040 0 -1040 0 0 1400 0 1400 1040 0 1040 0 0 -1400z"/>
<path d="M1965 2808 c-64 -37 -61 -83 12 -159 l57 -60 -57 -57 c-65 -66 -74
-103 -34 -140 41 -39 81 -30 145 32 l57 55 57 -55 c46 -44 63 -54 92 -54 25 0
40 7 55 26 35 44 27 76 -33 141 l-54 58 54 57 c69 72 73 122 13 153 -44 23
-56 19 -120 -42 l-60 -57 -47 46 c-70 67 -97 79 -137 56z"/>
<path d="M2793 2810 c-27 -11 -43 -40 -43 -77 0 -21 14 -42 55 -83 l54 -54
-54 -57 c-46 -48 -55 -64 -55 -93 0 -47 29 -76 76 -76 29 0 45 9 93 55 l57 54
54 -54 c64 -64 103 -73 145 -30 40 39 33 69 -32 136 l-57 60 52 52 c59 60 72
96 48 132 -40 61 -85 56 -162 -17 l-54 -51 -59 57 c-59 56 -76 63 -118 46z"/>
<path d="M2402 2031 c-121 -30 -216 -84 -307 -176 -46 -46 -93 -104 -109 -135
-27 -52 -28 -58 -15 -85 8 -16 26 -36 40 -44 42 -24 74 -8 120 61 106 155 255
238 429 238 174 0 323 -83 429 -238 46 -69 78 -85 120 -61 14 8 32 27 39 43
12 25 11 33 -14 84 -44 90 -169 208 -274 259 -149 73 -306 91 -458 54z"/>
</g>
</svg>
